# xmcd CD database file
#
# Track frame offsets:
#	150
#	19195
#	39912
#	55922
#	77505
#	88335
#	112970
#	127500
#	141435
#	157882
#
# Disc length: 2335 seconds
#
# Revision: 0
# Processed by: cddbd v1.4PL0 Copyright (c) Steve Scherf et al.
# Submitted via: CDex 1.40Release
#
DISCID=71091d0a
DTITLE=Rowland Stebbins - All Over
DYEAR=2002
DGENRE=Country
TTITLE0=Finally, First Light
TTITLE1=Blue In The Eye
TTITLE2=Undertaking
TTITLE3=Phoenix
TTITLE4=Admiring My Observations
TTITLE5=Mile Marker 101
TTITLE6=Wine and Beer When You're Here (And Whiskey When You're Gone)
TTITLE7=Lonesome Soul
TTITLE8=Keecker
TTITLE9=What Could Be Better
EXTD=YEAR: 2002 ID3G: 2
EXTT0=
EXTT1=
EXTT2=
EXTT3=
EXTT4=
EXTT5=
EXTT6=
EXTT7=
EXTT8=
EXTT9=
PLAYORDER=
